<mxfile host="65bd71144e">
    <diagram id="Cg8Cy1RkuvA94ve9R2zL" name="Page-1">
        <mxGraphModel dx="1265" dy="704" grid="1" gridSize="10" guides="1" tooltips="1" connect="1" arrows="1" fold="1" page="1" pageScale="1" pageWidth="850" pageHeight="1100" math="0" shadow="0">
            <root>
                <mxCell id="0"/>
                <mxCell id="1" parent="0"/>
                <mxCell id="2" value="&lt;div&gt;Director&lt;/div&gt;" style="swimlane;fontStyle=1;align=center;verticalAlign=top;childLayout=stackLayout;horizontal=1;startSize=40;horizontalStack=0;resizeParent=1;resizeParentMax=0;resizeLast=0;collapsible=1;marginBottom=0;whiteSpace=wrap;html=1;" parent="1" vertex="1">
                    <mxGeometry x="300" y="680" width="320" height="360" as="geometry"/>
                </mxCell>
                <mxCell id="3" value="-&amp;nbsp;&lt;span style=&quot;color: rgba(0, 0, 0, 0.88); font-family: &amp;quot;Nunito Sans&amp;quot;, &amp;quot;sans-serif&amp;quot;; font-size: 14px; background-color: rgb(255, 255, 255);&quot;&gt;idDirector&lt;/span&gt;: Long" style="text;strokeColor=none;fillColor=none;align=left;verticalAlign=top;spacingLeft=4;spacingRight=4;overflow=hidden;rotatable=0;points=[[0,0.5],[1,0.5]];portConstraint=eastwest;whiteSpace=wrap;html=1;" parent="2" vertex="1">
                    <mxGeometry y="40" width="320" height="26" as="geometry"/>
                </mxCell>
                <mxCell id="4" value="-&amp;nbsp;&lt;span style=&quot;color: rgba(0, 0, 0, 0.88); font-family: &amp;quot;Nunito Sans&amp;quot;, &amp;quot;sans-serif&amp;quot;; font-size: 14px; background-color: rgb(255, 255, 255);&quot;&gt;firstName&lt;/span&gt;: String" style="text;strokeColor=none;fillColor=none;align=left;verticalAlign=top;spacingLeft=4;spacingRight=4;overflow=hidden;rotatable=0;points=[[0,0.5],[1,0.5]];portConstraint=eastwest;whiteSpace=wrap;html=1;" parent="2" vertex="1">
                    <mxGeometry y="66" width="320" height="26" as="geometry"/>
                </mxCell>
                <mxCell id="11" value="-&amp;nbsp;&lt;span style=&quot;color: rgba(0, 0, 0, 0.88); font-family: &amp;quot;Nunito Sans&amp;quot;, &amp;quot;sans-serif&amp;quot;; font-size: 14px; background-color: rgb(255, 255, 255);&quot;&gt;lastName&lt;/span&gt;: String" style="text;strokeColor=none;fillColor=none;align=left;verticalAlign=top;spacingLeft=4;spacingRight=4;overflow=hidden;rotatable=0;points=[[0,0.5],[1,0.5]];portConstraint=eastwest;whiteSpace=wrap;html=1;" parent="2" vertex="1">
                    <mxGeometry y="92" width="320" height="26" as="geometry"/>
                </mxCell>
                <mxCell id="12" value="-&amp;nbsp;&lt;span style=&quot;color: rgba(0, 0, 0, 0.88); font-family: &amp;quot;Nunito Sans&amp;quot;, &amp;quot;sans-serif&amp;quot;; font-size: 14px; background-color: rgb(255, 255, 255);&quot;&gt;nationality&lt;/span&gt;: String" style="text;strokeColor=none;fillColor=none;align=left;verticalAlign=top;spacingLeft=4;spacingRight=4;overflow=hidden;rotatable=0;points=[[0,0.5],[1,0.5]];portConstraint=eastwest;whiteSpace=wrap;html=1;" parent="2" vertex="1">
                    <mxGeometry y="118" width="320" height="26" as="geometry"/>
                </mxCell>
                <mxCell id="13" value="-&amp;nbsp;&lt;span style=&quot;color: rgba(0, 0, 0, 0.88); font-family: &amp;quot;Nunito Sans&amp;quot;, &amp;quot;sans-serif&amp;quot;; font-size: 14px; background-color: rgb(255, 255, 255);&quot;&gt;birthDate&lt;/span&gt;: LocalDate" style="text;strokeColor=none;fillColor=none;align=left;verticalAlign=top;spacingLeft=4;spacingRight=4;overflow=hidden;rotatable=0;points=[[0,0.5],[1,0.5]];portConstraint=eastwest;whiteSpace=wrap;html=1;" parent="2" vertex="1">
                    <mxGeometry y="144" width="320" height="26" as="geometry"/>
                </mxCell>
                <mxCell id="5" value="-&amp;nbsp;&lt;span style=&quot;color: rgba(0, 0, 0, 0.88); font-family: &amp;quot;Nunito Sans&amp;quot;, &amp;quot;sans-serif&amp;quot;; font-size: 14px; background-color: rgb(255, 255, 255);&quot;&gt;biography&lt;/span&gt;:&amp;nbsp;&lt;span style=&quot;color: rgba(0, 0, 0, 0.88); font-family: &amp;quot;Nunito Sans&amp;quot;, &amp;quot;sans-serif&amp;quot;; font-size: 14px; background-color: rgb(255, 255, 255);&quot;&gt;String&lt;/span&gt;" style="text;strokeColor=none;fillColor=none;align=left;verticalAlign=top;spacingLeft=4;spacingRight=4;overflow=hidden;rotatable=0;points=[[0,0.5],[1,0.5]];portConstraint=eastwest;whiteSpace=wrap;html=1;" parent="2" vertex="1">
                    <mxGeometry y="170" width="320" height="26" as="geometry"/>
                </mxCell>
                <mxCell id="6" value="- films: List&amp;lt;Film&amp;gt;" style="text;strokeColor=none;fillColor=none;align=left;verticalAlign=top;spacingLeft=4;spacingRight=4;overflow=hidden;rotatable=0;points=[[0,0.5],[1,0.5]];portConstraint=eastwest;whiteSpace=wrap;html=1;" parent="2" vertex="1">
                    <mxGeometry y="196" width="320" height="26" as="geometry"/>
                </mxCell>
                <mxCell id="7" value="" style="line;strokeWidth=1;fillColor=none;align=left;verticalAlign=middle;spacingTop=-1;spacingLeft=3;spacingRight=3;rotatable=0;labelPosition=right;points=[];portConstraint=eastwest;strokeColor=inherit;" parent="2" vertex="1">
                    <mxGeometry y="222" width="320" height="8" as="geometry"/>
                </mxCell>
                <mxCell id="9" value="&lt;div&gt;&lt;font color=&quot;#000000&quot;&gt;+ saveDirector(DirectorDTO): DirectorDTO&lt;/font&gt;&lt;/div&gt;&lt;div&gt;&lt;br&gt;&lt;/div&gt;" style="text;strokeColor=none;fillColor=none;align=left;verticalAlign=top;spacingLeft=4;spacingRight=4;overflow=hidden;rotatable=0;points=[[0,0.5],[1,0.5]];portConstraint=eastwest;whiteSpace=wrap;html=1;" parent="2" vertex="1">
                    <mxGeometry y="230" width="320" height="26" as="geometry"/>
                </mxCell>
                <mxCell id="51" value="&lt;div&gt;&lt;font color=&quot;#000000&quot;&gt;+ updateDirector(Long, DirectorDTO): DirectorDTO&lt;/font&gt;&lt;/div&gt;" style="text;strokeColor=none;fillColor=none;align=left;verticalAlign=top;spacingLeft=4;spacingRight=4;overflow=hidden;rotatable=0;points=[[0,0.5],[1,0.5]];portConstraint=eastwest;whiteSpace=wrap;html=1;" vertex="1" parent="2">
                    <mxGeometry y="256" width="320" height="26" as="geometry"/>
                </mxCell>
                <mxCell id="52" value="&lt;div&gt;&lt;font color=&quot;#000000&quot;&gt;+ deleteDirector(Long): boolean&lt;/font&gt;&lt;/div&gt;" style="text;strokeColor=none;fillColor=none;align=left;verticalAlign=top;spacingLeft=4;spacingRight=4;overflow=hidden;rotatable=0;points=[[0,0.5],[1,0.5]];portConstraint=eastwest;whiteSpace=wrap;html=1;" vertex="1" parent="2">
                    <mxGeometry y="282" width="320" height="26" as="geometry"/>
                </mxCell>
                <mxCell id="53" value="&lt;div&gt;&lt;font color=&quot;#000000&quot;&gt;+ getAllDirectors(): List&amp;lt;DirectorDTO&amp;gt;&lt;/font&gt;&lt;/div&gt;" style="text;strokeColor=none;fillColor=none;align=left;verticalAlign=top;spacingLeft=4;spacingRight=4;overflow=hidden;rotatable=0;points=[[0,0.5],[1,0.5]];portConstraint=eastwest;whiteSpace=wrap;html=1;" vertex="1" parent="2">
                    <mxGeometry y="308" width="320" height="26" as="geometry"/>
                </mxCell>
                <mxCell id="54" value="&lt;div&gt;&lt;font color=&quot;#000000&quot;&gt;+ getDirectorById(Long): DirectorDTO&lt;/font&gt;&lt;/div&gt;" style="text;strokeColor=none;fillColor=none;align=left;verticalAlign=top;spacingLeft=4;spacingRight=4;overflow=hidden;rotatable=0;points=[[0,0.5],[1,0.5]];portConstraint=eastwest;whiteSpace=wrap;html=1;" vertex="1" parent="2">
                    <mxGeometry y="334" width="320" height="26" as="geometry"/>
                </mxCell>
                <mxCell id="14" value="&lt;div&gt;Category&lt;/div&gt;" style="swimlane;fontStyle=1;align=center;verticalAlign=top;childLayout=stackLayout;horizontal=1;startSize=40;horizontalStack=0;resizeParent=1;resizeParentMax=0;resizeLast=0;collapsible=1;marginBottom=0;whiteSpace=wrap;html=1;" parent="1" vertex="1">
                    <mxGeometry x="1130" y="680" width="320" height="282" as="geometry"/>
                </mxCell>
                <mxCell id="15" value="-&amp;nbsp;&lt;span style=&quot;color: rgba(0, 0, 0, 0.88); font-family: &amp;quot;Nunito Sans&amp;quot;, &amp;quot;sans-serif&amp;quot;; font-size: 14px; background-color: rgb(255, 255, 255);&quot;&gt;idCategory&amp;nbsp;&lt;/span&gt;: Long" style="text;strokeColor=none;fillColor=none;align=left;verticalAlign=top;spacingLeft=4;spacingRight=4;overflow=hidden;rotatable=0;points=[[0,0.5],[1,0.5]];portConstraint=eastwest;whiteSpace=wrap;html=1;" parent="14" vertex="1">
                    <mxGeometry y="40" width="320" height="26" as="geometry"/>
                </mxCell>
                <mxCell id="16" value="-&amp;nbsp;&lt;span style=&quot;color: rgba(0, 0, 0, 0.88); font-family: &amp;quot;Nunito Sans&amp;quot;, &amp;quot;sans-serif&amp;quot;; font-size: 14px; background-color: rgb(255, 255, 255);&quot;&gt;name&amp;nbsp;&lt;/span&gt;: String" style="text;strokeColor=none;fillColor=none;align=left;verticalAlign=top;spacingLeft=4;spacingRight=4;overflow=hidden;rotatable=0;points=[[0,0.5],[1,0.5]];portConstraint=eastwest;whiteSpace=wrap;html=1;" parent="14" vertex="1">
                    <mxGeometry y="66" width="320" height="26" as="geometry"/>
                </mxCell>
                <mxCell id="17" value="-&amp;nbsp;&lt;span style=&quot;color: rgba(0, 0, 0, 0.88); font-family: &amp;quot;Nunito Sans&amp;quot;, &amp;quot;sans-serif&amp;quot;; font-size: 14px; background-color: rgb(255, 255, 255);&quot;&gt;description&amp;nbsp;&lt;/span&gt;: String" style="text;strokeColor=none;fillColor=none;align=left;verticalAlign=top;spacingLeft=4;spacingRight=4;overflow=hidden;rotatable=0;points=[[0,0.5],[1,0.5]];portConstraint=eastwest;whiteSpace=wrap;html=1;" parent="14" vertex="1">
                    <mxGeometry y="92" width="320" height="26" as="geometry"/>
                </mxCell>
                <mxCell id="21" value="- films: List&amp;lt;Film&amp;gt;" style="text;strokeColor=none;fillColor=none;align=left;verticalAlign=top;spacingLeft=4;spacingRight=4;overflow=hidden;rotatable=0;points=[[0,0.5],[1,0.5]];portConstraint=eastwest;whiteSpace=wrap;html=1;" parent="14" vertex="1">
                    <mxGeometry y="118" width="320" height="26" as="geometry"/>
                </mxCell>
                <mxCell id="22" value="" style="line;strokeWidth=1;fillColor=none;align=left;verticalAlign=middle;spacingTop=-1;spacingLeft=3;spacingRight=3;rotatable=0;labelPosition=right;points=[];portConstraint=eastwest;strokeColor=inherit;" parent="14" vertex="1">
                    <mxGeometry y="144" width="320" height="8" as="geometry"/>
                </mxCell>
                <mxCell id="24" value="&lt;div&gt;&lt;font color=&quot;#000000&quot;&gt;+ saveCategory(CategoryDTO): CategoryDTO&lt;/font&gt;&lt;/div&gt;&lt;div&gt;&lt;br&gt;&lt;/div&gt;" style="text;strokeColor=none;fillColor=none;align=left;verticalAlign=top;spacingLeft=4;spacingRight=4;overflow=hidden;rotatable=0;points=[[0,0.5],[1,0.5]];portConstraint=eastwest;whiteSpace=wrap;html=1;" parent="14" vertex="1">
                    <mxGeometry y="152" width="320" height="26" as="geometry"/>
                </mxCell>
                <mxCell id="47" value="&lt;div&gt;&lt;div&gt;&lt;font color=&quot;#000000&quot;&gt;+ updateCategory(Long, CategoryDTO): CategoryDTO&lt;/font&gt;&lt;/div&gt;&lt;/div&gt;&lt;div&gt;&lt;br&gt;&lt;/div&gt;" style="text;strokeColor=none;fillColor=none;align=left;verticalAlign=top;spacingLeft=4;spacingRight=4;overflow=hidden;rotatable=0;points=[[0,0.5],[1,0.5]];portConstraint=eastwest;whiteSpace=wrap;html=1;" vertex="1" parent="14">
                    <mxGeometry y="178" width="320" height="26" as="geometry"/>
                </mxCell>
                <mxCell id="48" value="&lt;div&gt;&lt;div&gt;&lt;div&gt;&lt;font color=&quot;#000000&quot;&gt;+ deleteCategory(Long): boolean&lt;/font&gt;&lt;/div&gt;&lt;/div&gt;&lt;/div&gt;&lt;div&gt;&lt;br&gt;&lt;/div&gt;" style="text;strokeColor=none;fillColor=none;align=left;verticalAlign=top;spacingLeft=4;spacingRight=4;overflow=hidden;rotatable=0;points=[[0,0.5],[1,0.5]];portConstraint=eastwest;whiteSpace=wrap;html=1;" vertex="1" parent="14">
                    <mxGeometry y="204" width="320" height="26" as="geometry"/>
                </mxCell>
                <mxCell id="49" value="&lt;div&gt;&lt;div&gt;&lt;div&gt;&lt;div&gt;&lt;font color=&quot;#000000&quot;&gt;+ getAllCategories(): List&amp;lt;CategoryDTO&amp;gt;&lt;/font&gt;&lt;/div&gt;&lt;/div&gt;&lt;/div&gt;&lt;/div&gt;&lt;div&gt;&lt;br&gt;&lt;/div&gt;" style="text;strokeColor=none;fillColor=none;align=left;verticalAlign=top;spacingLeft=4;spacingRight=4;overflow=hidden;rotatable=0;points=[[0,0.5],[1,0.5]];portConstraint=eastwest;whiteSpace=wrap;html=1;" vertex="1" parent="14">
                    <mxGeometry y="230" width="320" height="26" as="geometry"/>
                </mxCell>
                <mxCell id="50" value="&lt;div&gt;&lt;div&gt;&lt;div&gt;&lt;div&gt;&lt;div&gt;&lt;font color=&quot;#000000&quot;&gt;+ getCategoryById(Long): CategoryDTO&lt;/font&gt;&lt;/div&gt;&lt;/div&gt;&lt;/div&gt;&lt;/div&gt;&lt;/div&gt;&lt;div&gt;&lt;br&gt;&lt;/div&gt;" style="text;strokeColor=none;fillColor=none;align=left;verticalAlign=top;spacingLeft=4;spacingRight=4;overflow=hidden;rotatable=0;points=[[0,0.5],[1,0.5]];portConstraint=eastwest;whiteSpace=wrap;html=1;" vertex="1" parent="14">
                    <mxGeometry y="256" width="320" height="26" as="geometry"/>
                </mxCell>
                <mxCell id="26" value="&lt;div&gt;Film&lt;/div&gt;" style="swimlane;fontStyle=1;align=center;verticalAlign=top;childLayout=stackLayout;horizontal=1;startSize=40;horizontalStack=0;resizeParent=1;resizeParentMax=0;resizeLast=0;collapsible=1;marginBottom=0;whiteSpace=wrap;html=1;" parent="1" vertex="1">
                    <mxGeometry x="680" y="140" width="320" height="386" as="geometry"/>
                </mxCell>
                <mxCell id="27" value="-&amp;nbsp;&lt;span style=&quot;color: rgba(0, 0, 0, 0.88); font-family: &amp;quot;Nunito Sans&amp;quot;, &amp;quot;sans-serif&amp;quot;; font-size: 14px; background-color: rgb(255, 255, 255);&quot;&gt;idFilm&amp;nbsp;&lt;/span&gt;: Long" style="text;strokeColor=none;fillColor=none;align=left;verticalAlign=top;spacingLeft=4;spacingRight=4;overflow=hidden;rotatable=0;points=[[0,0.5],[1,0.5]];portConstraint=eastwest;whiteSpace=wrap;html=1;" parent="26" vertex="1">
                    <mxGeometry y="40" width="320" height="26" as="geometry"/>
                </mxCell>
                <mxCell id="28" value="-&amp;nbsp;&lt;span style=&quot;color: rgba(0, 0, 0, 0.88); font-family: &amp;quot;Nunito Sans&amp;quot;, &amp;quot;sans-serif&amp;quot;; font-size: 14px; background-color: rgb(255, 255, 255);&quot;&gt;title&amp;nbsp;&lt;/span&gt;: String" style="text;strokeColor=none;fillColor=none;align=left;verticalAlign=top;spacingLeft=4;spacingRight=4;overflow=hidden;rotatable=0;points=[[0,0.5],[1,0.5]];portConstraint=eastwest;whiteSpace=wrap;html=1;" parent="26" vertex="1">
                    <mxGeometry y="66" width="320" height="26" as="geometry"/>
                </mxCell>
                <mxCell id="29" value="-&amp;nbsp;&lt;span style=&quot;color: rgba(0, 0, 0, 0.88); font-family: &amp;quot;Nunito Sans&amp;quot;, &amp;quot;sans-serif&amp;quot;; font-size: 14px; background-color: rgb(255, 255, 255);&quot;&gt;releaseYear&amp;nbsp;&lt;/span&gt;: int" style="text;strokeColor=none;fillColor=none;align=left;verticalAlign=top;spacingLeft=4;spacingRight=4;overflow=hidden;rotatable=0;points=[[0,0.5],[1,0.5]];portConstraint=eastwest;whiteSpace=wrap;html=1;" parent="26" vertex="1">
                    <mxGeometry y="92" width="320" height="26" as="geometry"/>
                </mxCell>
                <mxCell id="35" value="-&amp;nbsp;&lt;span style=&quot;color: rgba(0, 0, 0, 0.88); font-family: &amp;quot;Nunito Sans&amp;quot;, &amp;quot;sans-serif&amp;quot;; font-size: 14px; background-color: rgb(255, 255, 255);&quot;&gt;duration&amp;nbsp;&lt;/span&gt;: int" style="text;strokeColor=none;fillColor=none;align=left;verticalAlign=top;spacingLeft=4;spacingRight=4;overflow=hidden;rotatable=0;points=[[0,0.5],[1,0.5]];portConstraint=eastwest;whiteSpace=wrap;html=1;" parent="26" vertex="1">
                    <mxGeometry y="118" width="320" height="26" as="geometry"/>
                </mxCell>
                <mxCell id="36" value="-&amp;nbsp;&lt;span style=&quot;color: rgba(0, 0, 0, 0.88); font-family: &amp;quot;Nunito Sans&amp;quot;, &amp;quot;sans-serif&amp;quot;; font-size: 14px; background-color: rgb(255, 255, 255);&quot;&gt;synopsis&amp;nbsp;&lt;/span&gt;: String" style="text;strokeColor=none;fillColor=none;align=left;verticalAlign=top;spacingLeft=4;spacingRight=4;overflow=hidden;rotatable=0;points=[[0,0.5],[1,0.5]];portConstraint=eastwest;whiteSpace=wrap;html=1;" parent="26" vertex="1">
                    <mxGeometry y="144" width="320" height="26" as="geometry"/>
                </mxCell>
                <mxCell id="37" value="-&amp;nbsp;&lt;span style=&quot;color: rgba(0, 0, 0, 0.88); font-family: &amp;quot;Nunito Sans&amp;quot;, &amp;quot;sans-serif&amp;quot;; font-size: 14px; background-color: rgb(255, 255, 255);&quot;&gt;rating&amp;nbsp;&lt;/span&gt;: Double" style="text;strokeColor=none;fillColor=none;align=left;verticalAlign=top;spacingLeft=4;spacingRight=4;overflow=hidden;rotatable=0;points=[[0,0.5],[1,0.5]];portConstraint=eastwest;whiteSpace=wrap;html=1;" parent="26" vertex="1">
                    <mxGeometry y="170" width="320" height="26" as="geometry"/>
                </mxCell>
                <mxCell id="30" value="- director: Director" style="text;strokeColor=none;fillColor=none;align=left;verticalAlign=top;spacingLeft=4;spacingRight=4;overflow=hidden;rotatable=0;points=[[0,0.5],[1,0.5]];portConstraint=eastwest;whiteSpace=wrap;html=1;" parent="26" vertex="1">
                    <mxGeometry y="196" width="320" height="26" as="geometry"/>
                </mxCell>
                <mxCell id="39" value="- category: Category" style="text;strokeColor=none;fillColor=none;align=left;verticalAlign=top;spacingLeft=4;spacingRight=4;overflow=hidden;rotatable=0;points=[[0,0.5],[1,0.5]];portConstraint=eastwest;whiteSpace=wrap;html=1;" parent="26" vertex="1">
                    <mxGeometry y="222" width="320" height="26" as="geometry"/>
                </mxCell>
                <mxCell id="31" value="" style="line;strokeWidth=1;fillColor=none;align=left;verticalAlign=middle;spacingTop=-1;spacingLeft=3;spacingRight=3;rotatable=0;labelPosition=right;points=[];portConstraint=eastwest;strokeColor=inherit;" parent="26" vertex="1">
                    <mxGeometry y="248" width="320" height="8" as="geometry"/>
                </mxCell>
                <mxCell id="32" value="+ saveFilm(FilmDTO): FilmDTO" style="text;strokeColor=none;fillColor=none;align=left;verticalAlign=top;spacingLeft=4;spacingRight=4;overflow=hidden;rotatable=0;points=[[0,0.5],[1,0.5]];portConstraint=eastwest;whiteSpace=wrap;html=1;" parent="26" vertex="1">
                    <mxGeometry y="256" width="320" height="26" as="geometry"/>
                </mxCell>
                <mxCell id="55" value="+ updateFilm(Long, FilmDTO): FilmDTO" style="text;strokeColor=none;fillColor=none;align=left;verticalAlign=top;spacingLeft=4;spacingRight=4;overflow=hidden;rotatable=0;points=[[0,0.5],[1,0.5]];portConstraint=eastwest;whiteSpace=wrap;html=1;" vertex="1" parent="26">
                    <mxGeometry y="282" width="320" height="26" as="geometry"/>
                </mxCell>
                <mxCell id="56" value="+ deleteFilm(Long): boolean" style="text;strokeColor=none;fillColor=none;align=left;verticalAlign=top;spacingLeft=4;spacingRight=4;overflow=hidden;rotatable=0;points=[[0,0.5],[1,0.5]];portConstraint=eastwest;whiteSpace=wrap;html=1;" vertex="1" parent="26">
                    <mxGeometry y="308" width="320" height="26" as="geometry"/>
                </mxCell>
                <mxCell id="57" value="+ getAllFilms(): List&amp;lt;FilmDTO&amp;gt;" style="text;strokeColor=none;fillColor=none;align=left;verticalAlign=top;spacingLeft=4;spacingRight=4;overflow=hidden;rotatable=0;points=[[0,0.5],[1,0.5]];portConstraint=eastwest;whiteSpace=wrap;html=1;" vertex="1" parent="26">
                    <mxGeometry y="334" width="320" height="26" as="geometry"/>
                </mxCell>
                <mxCell id="58" value="+ getFilmById(Long): FilmDTO" style="text;strokeColor=none;fillColor=none;align=left;verticalAlign=top;spacingLeft=4;spacingRight=4;overflow=hidden;rotatable=0;points=[[0,0.5],[1,0.5]];portConstraint=eastwest;whiteSpace=wrap;html=1;" vertex="1" parent="26">
                    <mxGeometry y="360" width="320" height="26" as="geometry"/>
                </mxCell>
                <mxCell id="41" style="edgeStyle=none;html=1;exitX=0.208;exitY=0.99;exitDx=0;exitDy=0;entryX=0.695;entryY=-0.003;entryDx=0;entryDy=0;entryPerimeter=0;endArrow=none;endFill=0;exitPerimeter=0;" parent="1" source="58" target="2" edge="1">
                    <mxGeometry relative="1" as="geometry"/>
                </mxCell>
                <mxCell id="42" value="&lt;font style=&quot;font-size: 14px;&quot;&gt;1&lt;/font&gt;" style="edgeLabel;html=1;align=center;verticalAlign=middle;resizable=0;points=[];" parent="41" vertex="1" connectable="0">
                    <mxGeometry x="0.8729" y="1" relative="1" as="geometry">
                        <mxPoint x="19" y="-2" as="offset"/>
                    </mxGeometry>
                </mxCell>
                <mxCell id="43" value="&lt;font style=&quot;font-size: 14px;&quot;&gt;0..*&lt;/font&gt;" style="edgeLabel;html=1;align=center;verticalAlign=middle;resizable=0;points=[];" parent="41" vertex="1" connectable="0">
                    <mxGeometry x="-0.8619" y="2" relative="1" as="geometry">
                        <mxPoint x="25" as="offset"/>
                    </mxGeometry>
                </mxCell>
                <mxCell id="44" style="edgeStyle=none;html=1;exitX=0.68;exitY=1.106;exitDx=0;exitDy=0;entryX=0;entryY=0.5;entryDx=0;entryDy=0;endArrow=none;endFill=0;exitPerimeter=0;" parent="1" source="58" target="17" edge="1">
                    <mxGeometry relative="1" as="geometry"/>
                </mxCell>
                <mxCell id="45" value="&lt;font style=&quot;font-size: 14px;&quot;&gt;1&lt;/font&gt;" style="edgeLabel;html=1;align=center;verticalAlign=middle;resizable=0;points=[];" parent="44" vertex="1" connectable="0">
                    <mxGeometry x="0.8902" y="4" relative="1" as="geometry">
                        <mxPoint x="-7" y="-31" as="offset"/>
                    </mxGeometry>
                </mxCell>
                <mxCell id="46" value="&lt;font style=&quot;font-size: 14px;&quot;&gt;0..*&lt;/font&gt;" style="edgeLabel;html=1;align=center;verticalAlign=middle;resizable=0;points=[];" parent="44" vertex="1" connectable="0">
                    <mxGeometry x="-0.936" y="-3" relative="1" as="geometry">
                        <mxPoint x="26" y="16" as="offset"/>
                    </mxGeometry>
                </mxCell>
            </root>
        </mxGraphModel>
    </diagram>
</mxfile>